<svg width="24" height="24" viewBox="0 0 24 24" fill="none" xmlns="http://www.w3.org/2000/svg">
<path d="M10.9598 2.05862L5.4598 4.11862C4.4098 4.51862 3.5498 5.75862 3.5498 6.88862V14.9886C3.5498 15.7986 4.0798 16.8686 4.7298 17.3486L10.2298 21.4586C11.1998 22.1886 12.7898 22.1886 13.7598 21.4586L19.2598 17.3486C19.9098 16.8586 20.4398 15.7986 20.4398 14.9886V6.88862C20.4398 5.76862 19.5798 4.51862 18.5298 4.12862L13.0298 2.06862C12.4698 1.84862 11.5298 1.84862 10.9598 2.05862Z" fill="#A31F35"/>
<path d="M10.6602 14.2311C10.4702 14.2311 10.2802 14.1611 10.1302 14.0111L8.52023 12.4011C8.23023 12.1111 8.23023 11.6311 8.52023 11.3411C8.81023 11.0511 9.29023 11.0511 9.58023 11.3411L10.6602 12.4211L14.4302 8.65109C14.7202 8.36109 15.2002 8.36109 15.4902 8.65109C15.7802 8.94109 15.7802 9.42109 15.4902 9.71109L11.1902 14.0111C11.0402 14.1611 10.8502 14.2311 10.6602 14.2311Z" fill="white"/>
</svg>
